<svg width="1440" height="1024" viewBox="0 0 1440 1024" fill="none" xmlns="http://www.w3.org/2000/svg">
<g style="mix-blend-mode:screen" opacity="0.025">
<path d="M102.621 0.00320095L0 121.659L20.3045 145.73L122.926 24.074L102.621 0.00320095Z" fill="url(#paint0_linear_418_3)"/>
<path d="M102.621 145.727L122.926 121.656L184.939 48.1414L267.256 145.727L287.56 121.656L205.243 24.0707L184.939 -0.00012207L164.634 24.0707L102.621 97.5857L82.3169 121.656L-0.00012207 219.242L20.3044 243.313L102.621 145.727Z" fill="url(#paint1_linear_418_3)"/>
<path d="M493.902 121.657L411.585 219.242L431.89 243.313L514.207 145.727L534.511 121.657L596.524 48.1416L678.841 145.727L699.146 121.657L616.828 24.0708L596.524 0L576.219 24.0708L514.207 97.5858L493.902 121.657Z" fill="url(#paint2_linear_418_3)"/>
<path d="M1419.7 145.727L1440 121.657L1419.7 97.5858L1337.38 0L1255.06 97.5858L1234.76 121.657L1255.06 145.727L1317.07 219.242L1255.06 292.757L1172.74 195.172L1152.44 219.242L1234.76 316.828L1172.74 390.343L1090.43 487.929L1028.41 414.414L1110.73 316.828L1090.43 292.757L1008.11 390.343L987.805 414.414L1008.11 438.485L1070.12 512L1008.11 585.515L925.793 487.929L905.488 512L987.805 609.586L1008.11 633.656L1070.12 707.171L1090.43 731.242L1110.73 707.171L1172.74 633.656L1234.76 707.171L1172.74 780.686L1152.44 804.757L1070.12 902.343L1090.43 926.414L1172.74 828.828L1234.76 902.343L1255.06 926.414L1317.07 999.929L1337.38 1024L1357.68 999.929L1440 902.343L1419.7 878.272L1337.38 975.858L1275.37 902.343L1255.06 878.272L1193.05 804.757L1255.06 731.242L1275.37 707.171L1337.38 633.656L1419.7 731.242L1440 707.171L1357.68 609.586L1419.7 536.071L1440 512L1419.7 487.929L1337.38 390.343L1275.37 316.828L1337.38 243.313L1419.7 340.899L1440 316.828L1357.68 219.242L1419.7 145.727ZM1090.43 683.101L1028.41 609.586L1090.43 536.071L1152.44 609.586L1090.43 683.101ZM1317.07 414.414L1234.76 512L1255.06 536.071L1337.38 438.485L1399.39 512L1317.07 609.586L1255.06 683.101L1193.05 609.586L1110.73 512L1172.74 438.485L1255.06 340.899L1317.07 414.414ZM1275.37 121.657L1337.38 48.1416L1399.39 121.657L1337.38 195.172L1275.37 121.657Z" fill="url(#paint3_linear_418_3)"/>
<path d="M1337.37 292.763L1317.06 316.833L1419.68 438.489L1439.99 414.418L1337.37 292.763Z" fill="url(#paint4_linear_418_3)"/>
<path d="M1172.74 487.927L1152.44 511.998L1172.74 536.069L1234.76 609.584L1255.06 633.655L1275.37 609.584L1357.68 511.998L1337.38 487.927L1255.06 585.513L1193.05 511.998L1275.37 414.412L1255.06 390.342L1172.74 487.927Z" fill="url(#paint5_linear_418_3)"/>
<path d="M20.3044 731.242L122.926 609.585L40.609 512L102.621 438.485L164.634 512L184.939 536.07L205.243 512L267.256 438.485L287.56 414.414L267.256 390.343L205.243 316.828L184.939 292.757L122.926 219.242L184.939 145.727L246.951 219.242L267.256 243.313L329.268 316.828L349.573 340.899L411.585 414.414L329.268 512L349.573 536.07L431.89 438.485L452.194 414.414L431.89 390.343L369.877 316.828L349.573 292.757L287.56 219.242L349.573 145.727L369.877 121.656L452.194 24.0707L431.89 -0.00012207L349.573 97.5857L267.256 -0.00012207L246.951 24.0707L329.268 121.656L267.256 195.171L205.243 121.656L184.939 97.5857L164.634 121.656L102.621 195.171L82.3169 219.242L20.3044 292.757L-0.00012207 316.828L20.3044 340.899L82.3169 414.414L20.3044 487.929L-0.00012207 512L82.3169 609.585L-0.00012207 707.171L20.3044 731.242ZM246.951 414.414L184.939 487.929L122.926 414.414L184.939 340.899L246.951 414.414ZM40.609 316.828L102.621 243.313L164.634 316.828L102.621 390.343L40.609 316.828Z" fill="url(#paint6_linear_418_3)"/>
<path d="M534.511 609.587L514.207 585.516L493.902 609.587L411.585 707.172L431.89 731.243L514.207 633.657L596.524 731.243L616.828 707.172L534.511 609.587Z" fill="url(#paint7_linear_418_3)"/>
<path d="M122.926 707.171L184.939 633.656L246.951 707.171L267.256 731.242L287.56 707.171L369.877 609.585L452.194 512L514.207 438.485L534.511 414.414L514.207 390.343L452.194 316.828L514.207 243.313L534.511 219.242L596.524 145.727L658.536 219.242L678.841 243.313L740.853 316.828L678.841 390.343L658.536 414.414L596.524 487.929L576.219 512L658.536 609.585L761.158 731.242L781.463 707.171L699.146 609.585L616.828 512L678.841 438.485L688.994 426.449L699.146 414.414L761.158 340.899L823.17 414.414L761.158 487.929L740.853 512L761.158 536.07L823.17 609.585L843.475 633.656L905.488 707.171L823.17 804.757L843.475 828.828L925.792 731.242L946.097 707.171L925.792 683.1L863.78 609.585L781.463 512L843.475 438.485L863.78 414.414L843.475 390.343L761.158 292.757L699.146 219.242L761.158 145.727L843.475 243.313L863.78 219.242L781.463 121.656L843.475 48.1414L925.792 145.727L987.805 219.242L905.488 316.828L925.792 340.899L1008.11 243.313L1028.41 219.242L1008.11 195.171L946.097 121.656L1008.11 48.1414L1090.43 145.727L1110.73 121.656L1008.11 -0.00012207L925.792 97.5857L843.475 -0.00012207L761.158 97.5857L678.841 -0.00012207L658.536 24.0707L740.853 121.656L678.841 195.171L616.828 121.656L596.524 97.5857L576.219 121.656L514.207 195.171L493.902 219.242L431.89 292.757L369.877 219.242L431.89 145.727L452.194 121.656L534.511 24.0707L514.207 -0.00012207L431.89 97.5857L411.585 121.656L349.573 195.171L329.268 219.242L349.573 243.313L411.585 316.828L431.89 340.899L493.902 414.414L431.89 487.929L411.585 512L349.573 585.515L287.56 512L349.573 438.485L369.877 414.414L349.573 390.343L287.56 316.828L267.256 292.757L184.939 195.171L164.634 219.242L246.951 316.828L267.256 340.899L329.268 414.414L267.256 487.929L246.951 512L184.939 585.515L102.621 487.929L82.3169 512L164.634 609.585L82.3169 707.171L-0.00012207 804.757L20.3044 828.828L122.926 707.171ZM267.256 536.07L329.268 609.585L267.256 683.1L205.243 609.585L267.256 536.07Z" fill="url(#paint8_linear_418_3)"/>
<path d="M1357.68 707.172L1337.38 683.102L1317.07 707.172L1255.06 780.687L1234.76 804.758L1255.06 828.829L1317.07 902.344L1337.38 926.415L1357.68 902.344L1419.69 828.829L1440 804.758L1419.69 780.687L1357.68 707.172ZM1337.38 878.273L1275.36 804.758L1337.38 731.243L1399.39 804.758L1337.38 878.273Z" fill="url(#paint9_linear_418_3)"/>
<path d="M122.926 902.343L184.939 828.828L267.256 926.414L287.56 902.343L205.243 804.758L184.939 780.687L164.634 804.758L82.3171 902.343L0 999.929L20.3046 1024L102.622 926.414L184.939 1024L205.243 999.929L122.926 902.343Z" fill="url(#paint10_linear_418_3)"/>
<path d="M761.158 926.414L781.463 902.343L761.158 878.273L678.841 780.687L658.537 804.758L740.854 902.343L678.841 975.858L616.829 902.343L596.524 878.273L576.22 902.343L514.207 975.858L452.195 902.343L349.573 780.687L329.269 804.758L411.586 902.343L493.903 999.929L514.207 1024L534.512 999.929L596.524 926.414L658.537 999.929L678.841 1024L699.146 999.929L761.158 926.414Z" fill="url(#paint11_linear_418_3)"/>
<path d="M946.097 902.343L1028.41 804.758L1008.11 780.687L925.792 878.273L905.488 902.343L823.171 999.929L843.475 1024L925.792 926.414L946.097 902.343Z" fill="url(#paint12_linear_418_3)"/>
<path d="M1172.74 878.272L1152.44 902.343L1090.43 975.858L1028.41 902.343L1090.43 828.828L1110.73 804.757L1193.05 707.171L1172.74 683.1L1090.43 780.686L1028.41 707.171L1008.11 683.1L946.097 609.585L863.78 512L925.792 438.485L1008.11 536.07L1028.41 512L946.097 414.414L1008.11 340.899L1090.43 243.313L1152.44 316.828L1070.12 414.414L1090.43 438.485L1172.74 340.899L1193.05 316.828L1172.74 292.757L1110.73 219.242L1172.74 145.727L1255.06 243.313L1275.36 219.242L1193.05 121.656L1275.36 24.0707L1255.06 -0.00012207L1172.74 97.5857L1090.43 -0.00012207L1070.12 24.0707L1152.44 121.656L1090.43 195.171L1008.11 97.5857L987.805 121.656L1070.12 219.242L1008.11 292.757L925.792 390.343L863.78 316.828L925.792 243.313L946.097 219.242L925.792 195.171L843.475 97.5857L823.171 121.656L905.488 219.242L843.475 292.757L761.158 195.171L740.853 219.242L843.475 340.899L905.488 414.414L843.475 487.929L823.171 512L843.475 536.07L905.488 609.585L925.792 633.656L987.805 707.171L925.792 780.686L905.488 804.757L843.475 878.272L781.463 804.757L843.475 731.242L863.78 707.171L843.475 683.1L781.463 609.585L699.146 512L781.463 414.414L761.158 390.343L678.841 487.929L658.536 512L761.158 633.656L823.171 707.171L761.158 780.686L699.146 707.171L616.828 609.585L534.511 512L596.524 438.485L616.828 414.414L678.841 340.899L699.146 316.828L678.841 292.757L616.828 219.242L596.524 195.171L576.219 219.242L514.207 292.757L493.902 316.828L514.207 340.899L576.219 414.414L514.207 487.929L493.902 512L411.585 609.585L329.268 707.171L267.256 780.686L205.243 707.171L184.939 683.1L164.634 707.171L82.3169 804.757L-0.00012207 902.343L20.3044 926.414L122.926 804.757L184.939 731.242L246.951 804.757L329.268 902.343L267.256 975.858L184.939 878.272L164.634 902.343L246.951 999.929L267.256 1024L287.56 999.929L349.573 926.414L431.89 1024L452.194 999.929L369.877 902.343L287.56 804.757L349.573 731.242L411.585 804.757L493.902 902.343L514.207 926.414L534.511 902.343L596.524 828.828L678.841 926.414L699.146 902.343L616.828 804.757L678.841 731.242L761.158 828.828L823.171 902.343L740.853 999.929L761.158 1024L843.475 926.414L863.78 902.343L925.792 828.828L946.097 804.757L1008.11 731.242L1070.12 804.757L1008.11 878.272L987.805 902.343L905.488 999.929L925.792 1024L1008.11 926.414L1070.12 999.929L1090.43 1024L1110.73 999.929L1172.74 926.414L1255.06 1024L1275.36 999.929L1193.05 902.343L1172.74 878.272ZM534.511 316.828L596.524 243.313L658.536 316.828L596.524 390.343L534.511 316.828ZM514.207 878.272L452.194 804.757L514.207 731.242L576.219 804.757L514.207 878.272ZM596.524 780.686L534.511 707.171L514.207 683.1L493.902 707.171L431.89 780.686L369.877 707.171L452.194 609.585L514.207 536.07L576.219 609.585L658.536 707.171L596.524 780.686Z" fill="url(#paint13_linear_418_3)"/>
</g>
<defs>
<linearGradient id="paint0_linear_418_3" x1="51.3106" y1="60.8313" x2="75.0371" y2="80.8454" gradientUnits="userSpaceOnUse">
<stop stop-color="#7C10B1"/>
<stop offset="1" stop-color="#E7BEFB"/>
</linearGradient>
<linearGradient id="paint1_linear_418_3" x1="143.78" y1="-0.00012207" x2="143.78" y2="243.313" gradientUnits="userSpaceOnUse">
<stop stop-color="#7C10B1"/>
<stop offset="1" stop-color="#E7BEFB"/>
</linearGradient>
<linearGradient id="paint2_linear_418_3" x1="555.365" y1="0" x2="555.365" y2="243.313" gradientUnits="userSpaceOnUse">
<stop stop-color="#7C10B1"/>
<stop offset="1" stop-color="#E7BEFB"/>
</linearGradient>
<linearGradient id="paint3_linear_418_3" x1="1172.74" y1="0" x2="1172.74" y2="1024" gradientUnits="userSpaceOnUse">
<stop stop-color="#7C10B1"/>
<stop offset="1" stop-color="#E7BEFB"/>
</linearGradient>
<linearGradient id="paint4_linear_418_3" x1="1327.21" y1="304.798" x2="1447.13" y2="405.951" gradientUnits="userSpaceOnUse">
<stop stop-color="#7C10B1"/>
<stop offset="1" stop-color="#E7BEFB"/>
</linearGradient>
<linearGradient id="paint5_linear_418_3" x1="1255.06" y1="390.342" x2="1255.06" y2="633.655" gradientUnits="userSpaceOnUse">
<stop stop-color="#7C10B1"/>
<stop offset="1" stop-color="#E7BEFB"/>
</linearGradient>
<linearGradient id="paint6_linear_418_3" x1="226.097" y1="-0.00012207" x2="226.097" y2="731.242" gradientUnits="userSpaceOnUse">
<stop stop-color="#7C10B1"/>
<stop offset="1" stop-color="#E7BEFB"/>
</linearGradient>
<linearGradient id="paint7_linear_418_3" x1="514.207" y1="585.516" x2="514.207" y2="731.243" gradientUnits="userSpaceOnUse">
<stop stop-color="#7C10B1"/>
<stop offset="1" stop-color="#E7BEFB"/>
</linearGradient>
<linearGradient id="paint8_linear_418_3" x1="555.365" y1="-0.00012207" x2="555.365" y2="828.828" gradientUnits="userSpaceOnUse">
<stop stop-color="#7C10B1"/>
<stop offset="1" stop-color="#E7BEFB"/>
</linearGradient>
<linearGradient id="paint9_linear_418_3" x1="1337.38" y1="683.102" x2="1337.38" y2="926.415" gradientUnits="userSpaceOnUse">
<stop stop-color="#7C10B1"/>
<stop offset="1" stop-color="#E7BEFB"/>
</linearGradient>
<linearGradient id="paint10_linear_418_3" x1="143.78" y1="780.687" x2="143.78" y2="1024" gradientUnits="userSpaceOnUse">
<stop stop-color="#7C10B1"/>
<stop offset="1" stop-color="#E7BEFB"/>
</linearGradient>
<linearGradient id="paint11_linear_418_3" x1="555.366" y1="780.687" x2="555.366" y2="1024" gradientUnits="userSpaceOnUse">
<stop stop-color="#7C10B1"/>
<stop offset="1" stop-color="#E7BEFB"/>
</linearGradient>
<linearGradient id="paint12_linear_418_3" x1="925.792" y1="780.687" x2="925.792" y2="1024" gradientUnits="userSpaceOnUse">
<stop stop-color="#7C10B1"/>
<stop offset="1" stop-color="#E7BEFB"/>
</linearGradient>
<linearGradient id="paint13_linear_418_3" x1="637.682" y1="-0.00012207" x2="637.682" y2="1024" gradientUnits="userSpaceOnUse">
<stop stop-color="#7C10B1"/>
<stop offset="1" stop-color="#E7BEFB"/>
</linearGradient>
</defs>
</svg>
